<?xml version="1.0" standalone="no"?>
<!DOCTYPE svg PUBLIC "-//W3C//DTD SVG 20010904//EN"
 "http://www.w3.org/TR/2001/REC-SVG-20010904/DTD/svg10.dtd">
<svg version="1.0" xmlns="http://www.w3.org/2000/svg"
 width="90.000000pt" height="94.000000pt" viewBox="0 0 90.000000 94.000000"
 preserveAspectRatio="xMidYMid meet">

<g transform="translate(0.000000,94.000000) scale(0.100000,-0.100000)"
fill="#000000" stroke="none">
<path d="M293 799 c-139 -54 -237 -216 -218 -364 11 -95 17 -96 130 -28 87 51
100 62 107 93 5 19 20 45 33 57 24 21 25 27 25 143 0 90 -3 120 -12 119 -7 0
-36 -9 -65 -20z m22 -225 c-15 -16 -29 -41 -32 -57 -5 -22 -21 -37 -82 -72
-89 -52 -96 -48 -89 49 10 115 73 212 171 261 l52 26 3 -90 c3 -84 1 -91 -23
-117z"/>
<path d="M460 702 c0 -114 1 -119 25 -142 14 -13 30 -40 36 -59 9 -31 23 -43
104 -88 51 -29 100 -53 108 -53 20 0 31 70 25 154 -10 119 -76 214 -190 270
-110 56 -108 57 -108 -82z m144 20 c21 -14 49 -40 62 -57 43 -56 73 -173 59
-233 l-6 -30 -75 43 c-64 36 -78 49 -100 93 -14 27 -31 53 -39 56 -12 4 -15
26 -15 96 l0 90 38 -15 c20 -9 54 -28 76 -43z"/>
<path d="M397 537 c-32 -37 -33 -43 -7 -59 24 -15 28 -53 5 -44 -9 3 -15 0
-15 -9 0 -8 6 -15 14 -15 8 0 16 -7 20 -15 4 -12 10 -10 31 9 30 28 32 51 5
68 -23 15 -27 38 -5 38 8 0 15 5 15 10 0 6 -5 10 -10 10 -6 0 -14 9 -18 20 -7
18 -9 17 -35 -13z m53 -91 c0 -3 -4 -8 -10 -11 -5 -3 -10 -1 -10 4 0 6 5 11
10 11 6 0 10 -2 10 -4z"/>
<path d="M248 332 c-54 -31 -98 -62 -98 -70 0 -20 56 -66 118 -98 51 -26 67
-29 152 -29 85 0 101 3 150 29 59 30 120 82 120 102 0 7 -44 38 -97 69 -84 49
-100 55 -120 46 -29 -13 -73 -14 -105 -2 -19 7 -41 -2 -120 -47z"/>
</g>
</svg>
