<?xml version="1.0" standalone="no"?>
<!DOCTYPE svg PUBLIC "-//W3C//DTD SVG 20010904//EN"
 "http://www.w3.org/TR/2001/REC-SVG-20010904/DTD/svg10.dtd">
<svg version="1.0" xmlns="http://www.w3.org/2000/svg"
 width="330.000000pt" height="150.000000pt" viewBox="0 0 330.000000 150.000000"
 preserveAspectRatio="xMidYMid meet">

<g transform="translate(0.000000,150.000000) scale(0.100000,-0.100000)"
fill="#000000" stroke="none">
<path d="M1250 1180 c0 -7 295 -10 865 -10 570 0 865 3 865 10 0 7 -295 10
-865 10 -570 0 -865 -3 -865 -10z"/>
<path d="M463 1109 c-139 -54 -237 -216 -218 -364 11 -95 17 -96 130 -28 87
51 100 62 107 93 5 19 20 45 33 57 24 21 25 27 25 143 0 90 -3 120 -12 119 -7
0 -36 -9 -65 -20z m22 -225 c-15 -16 -29 -41 -32 -57 -5 -22 -21 -37 -82 -72
-89 -52 -96 -48 -89 49 10 115 73 212 171 261 l52 26 3 -90 c3 -84 1 -91 -23
-117z"/>
<path d="M630 1012 c0 -114 1 -119 25 -142 14 -13 30 -40 36 -59 9 -31 23 -43
104 -88 51 -29 100 -53 108 -53 20 0 31 70 25 154 -10 119 -76 214 -190 270
-110 56 -108 57 -108 -82z m144 20 c21 -14 49 -40 62 -57 43 -56 73 -173 59
-233 l-6 -30 -75 43 c-64 36 -78 49 -100 93 -14 27 -31 53 -39 56 -12 4 -15
26 -15 96 l0 90 38 -15 c20 -9 54 -28 76 -43z"/>
<path d="M1510 1085 c-7 -8 -8 -15 -2 -15 5 0 15 7 22 15 7 8 8 15 2 15 -5 0
-15 -7 -22 -15z"/>
<path d="M1280 1030 c-11 -11 -20 -26 -20 -33 0 -23 27 -51 61 -62 19 -7 35
-19 37 -29 9 -45 -70 -66 -88 -23 -9 20 -9 19 -7 -8 2 -27 6 -30 40 -33 50 -4
79 20 75 62 -3 26 -11 35 -50 53 -27 13 -48 29 -48 36 0 37 68 52 77 17 7 -28
23 -25 23 4 0 39 -67 49 -100 16z"/>
<path d="M1420 1040 c0 -5 5 -10 10 -10 6 0 10 -35 10 -85 0 -50 -4 -85 -10
-85 -5 0 -10 -4 -10 -10 0 -6 30 -10 70 -10 70 0 70 0 69 28 -1 16 -3 20 -6
10 -3 -13 -15 -18 -44 -18 -39 0 -39 0 -39 39 0 39 1 40 38 44 l37 4 -37 1
c-37 2 -38 3 -38 42 0 39 1 40 35 40 22 0 38 -6 44 -17 9 -15 10 -14 11 10 0
27 0 27 -70 27 -40 0 -70 -4 -70 -10z"/>
<path d="M1610 1041 c0 -6 5 -11 10 -11 6 0 10 -35 10 -85 0 -50 -4 -85 -10
-85 -5 0 -10 -4 -10 -10 0 -5 14 -10 30 -10 17 0 30 5 30 10 0 6 -4 10 -10 10
-5 0 -10 16 -10 35 0 49 22 45 62 -10 30 -40 68 -60 68 -35 0 6 -4 10 -9 10
-6 0 -22 16 -37 35 l-27 36 21 15 c26 18 29 65 6 85 -20 17 -124 26 -124 10z
m104 -24 c11 -8 17 -23 14 -38 -2 -20 -9 -25 -40 -27 l-38 -3 0 40 c0 36 3 41
23 41 13 0 31 -6 41 -13z"/>
<path d="M1859 1035 c-56 -30 -64 -129 -14 -172 28 -25 76 -30 119 -13 22 8
26 16 26 50 0 38 -2 40 -30 40 -16 0 -30 -4 -30 -10 0 -5 9 -10 20 -10 25 0
28 -45 4 -54 -27 -11 -69 -6 -91 9 -47 33 -37 123 17 145 35 15 87 4 93 -18 3
-10 5 -6 6 9 1 22 -4 28 -30 33 -45 9 -61 7 -90 -9z"/>
<path d="M2030 1040 c0 -5 5 -10 10 -10 6 0 10 -35 10 -85 0 -50 -4 -85 -10
-85 -5 0 -10 -4 -10 -10 0 -5 14 -10 30 -10 17 0 30 5 30 10 0 6 -4 10 -10 10
-6 0 -10 35 -10 85 0 50 4 85 10 85 6 0 10 5 10 10 0 6 -13 10 -30 10 -16 0
-30 -4 -30 -10z"/>
<path d="M2200 1043 c-28 -10 -59 -45 -65 -74 -22 -101 94 -171 166 -100 75
76 -3 210 -101 174z m88 -37 c8 -7 16 -32 19 -54 5 -34 1 -44 -20 -66 -55 -55
-127 -22 -127 58 0 37 5 48 27 66 30 23 76 22 101 -4z"/>
<path d="M2373 1015 c0 -22 2 -30 4 -17 2 12 2 30 0 40 -3 9 -5 -1 -4 -23z"/>
<path d="M2450 1030 c-11 -11 -20 -26 -20 -33 0 -23 27 -51 61 -62 19 -7 35
-19 37 -29 9 -45 -70 -66 -88 -23 -9 20 -9 19 -7 -8 2 -27 6 -30 40 -33 50 -4
79 20 75 62 -3 26 -11 35 -50 53 -27 13 -48 29 -48 36 0 37 68 52 77 17 7 -28
23 -25 23 4 0 39 -67 49 -100 16z"/>
<path d="M567 847 c-32 -37 -33 -43 -7 -59 24 -15 28 -53 5 -44 -9 3 -15 0
-15 -9 0 -8 6 -15 14 -15 8 0 16 -7 20 -15 4 -12 10 -10 31 9 30 28 32 51 5
68 -23 15 -27 38 -5 38 8 0 15 5 15 10 0 6 -5 10 -10 10 -6 0 -14 9 -18 20 -7
18 -9 17 -35 -13z m53 -91 c0 -3 -4 -8 -10 -11 -5 -3 -10 -1 -10 4 0 6 5 11
10 11 6 0 10 -2 10 -4z"/>
<path d="M1280 710 c-11 -11 -20 -26 -20 -33 0 -23 27 -51 61 -62 19 -7 35
-19 37 -29 9 -45 -70 -66 -88 -23 -9 20 -9 19 -7 -8 2 -27 6 -30 40 -33 50 -4
79 20 75 62 -3 26 -11 35 -50 53 -27 13 -48 29 -48 36 0 37 68 52 77 17 7 -28
23 -25 23 4 0 39 -67 49 -100 16z"/>
<path d="M1420 720 c0 -5 5 -10 10 -10 6 0 10 -35 10 -85 0 -50 -4 -85 -10
-85 -5 0 -10 -4 -10 -10 0 -5 17 -10 38 -10 34 1 35 2 19 14 -13 10 -17 24
-15 48 3 33 3 33 61 36 l57 3 0 -41 c0 -22 -4 -40 -10 -40 -5 0 -10 -4 -10
-10 0 -5 17 -10 38 -10 33 1 35 2 20 14 -25 19 -27 176 -2 176 8 0 12 5 9 10
-3 6 -19 10 -36 10 -16 0 -29 -4 -29 -10 0 -5 5 -10 10 -10 6 0 10 -18 10 -40
l0 -41 -57 3 -58 3 -3 38 c-3 29 0 37 13 37 9 0 13 5 10 10 -3 6 -19 10 -36
10 -16 0 -29 -4 -29 -10z"/>
<path d="M1720 718 c-34 -18 -62 -75 -54 -113 8 -44 56 -85 100 -85 117 0 130
189 14 206 -19 2 -46 -1 -60 -8z m103 -40 c41 -48 3 -138 -59 -138 -85 0 -104
133 -24 163 24 9 64 -2 83 -25z"/>
<path d="M1890 720 c0 -5 4 -10 9 -10 4 0 21 -43 37 -95 15 -52 33 -95 39 -95
6 0 22 34 35 76 13 41 27 77 31 80 4 2 19 -32 34 -76 15 -45 32 -79 38 -77 6
2 23 45 39 95 16 51 33 92 38 92 6 0 10 5 10 10 0 6 -14 10 -31 10 -25 0 -30
-3 -25 -17 7 -18 -22 -143 -33 -143 -4 0 -18 34 -32 76 -13 41 -28 76 -34 76
-5 0 -20 -29 -32 -64 -13 -35 -26 -70 -30 -78 -3 -9 -15 13 -28 55 -13 39 -19
72 -14 73 21 8 7 22 -21 22 -16 0 -30 -4 -30 -10z"/>
<path d="M2293 720 c-50 -20 -72 -100 -44 -153 24 -44 97 -62 137 -33 24 18
13 31 -14 17 -82 -44 -154 68 -87 134 32 33 95 32 95 -1 0 -8 5 -14 10 -14 6
0 10 11 10 24 0 18 -7 25 -31 30 -39 7 -48 7 -76 -4z"/>
<path d="M2526 722 c-2 -4 -19 -43 -36 -87 -17 -44 -39 -88 -47 -97 -15 -17
-14 -18 17 -18 26 0 31 3 22 12 -7 7 -8 17 -1 30 13 25 104 26 113 2 4 -9 1
-23 -5 -30 -9 -11 -5 -14 21 -14 25 0 30 3 22 13 -6 6 -27 54 -47 105 -35 86
-47 103 -59 84z m35 -77 l17 -45 -40 0 c-28 0 -39 4 -35 13 2 6 10 29 18 49
15 43 17 42 40 -17z"/>
<path d="M2707 712 c-10 -10 -17 -31 -17 -46 0 -22 8 -30 46 -46 40 -18 45
-23 42 -47 -2 -24 -8 -29 -36 -31 -27 -3 -35 1 -39 17 -7 29 -23 26 -23 -4 0
-46 80 -48 113 -3 19 25 19 28 4 52 -9 13 -32 29 -52 36 -27 9 -35 17 -35 35
0 40 73 46 83 7 3 -10 5 -7 6 9 2 41 -61 55 -92 21z"/>
<path d="M2840 720 c0 -5 5 -10 10 -10 6 0 10 -35 10 -85 0 -50 -4 -85 -10
-85 -5 0 -10 -4 -10 -10 0 -6 32 -10 75 -10 68 0 75 2 75 19 0 11 -4 23 -10
26 -5 3 -10 -1 -10 -9 0 -12 -10 -16 -40 -16 -40 0 -40 0 -40 39 0 39 1 40 38
44 l37 4 -37 1 c-37 2 -38 3 -38 42 l0 40 40 0 c29 0 40 -4 40 -15 0 -8 5 -15
11 -15 6 0 9 10 7 23 -3 20 -9 22 -75 25 -46 2 -73 -1 -73 -8z"/>
<path d="M418 642 c-54 -31 -98 -62 -98 -70 0 -20 56 -66 118 -98 51 -26 67
-29 152 -29 85 0 101 3 150 29 59 30 120 82 120 102 0 7 -44 38 -97 69 -84 49
-100 55 -120 46 -29 -13 -73 -14 -105 -2 -19 7 -41 -2 -120 -47z"/>
<path d="M1250 390 c0 -7 295 -10 865 -10 570 0 865 3 865 10 0 7 -295 10
-865 10 -570 0 -865 -3 -865 -10z"/>
</g>
</svg>
